<?xml version="1.0" encoding="utf-8"?>
<!-- Generator: Adobe Illustrator 16.0.0, SVG Export Plug-In . SVG Version: 6.00 Build 0)  -->
<!DOCTYPE svg PUBLIC "-//W3C//DTD SVG 1.1//EN" "http://www.w3.org/Graphics/SVG/1.1/DTD/svg11.dtd">
<svg version="1.1" id="Layer_1" xmlns="http://www.w3.org/2000/svg" xmlns:xlink="http://www.w3.org/1999/xlink" x="0px" y="0px"
	 width="64px" height="64px" viewBox="0 0 64 64" enable-background="new 0 0 64 64" xml:space="preserve">
<path fill="#5E8C7D" d="M41.995,38.646v0.938c0,6.764-0.002,13.53,0.005,20.296c0,0.471,0.036,0.95,0.14,1.407
	c0.233,0.996,0.818,1.746,1.744,2.206c2.373,1.171,4.921-0.419,4.921-3.085c0.006-13.713,0.003-27.423,0.003-41.134
	c0-4.691,0.022-9.383-0.009-14.072c-0.023-3.785-3.791-6.26-7.239-4.757c-2.283,0.994-3.169,2.948-3.175,5.296
	c-0.03,10.757-0.011,21.514-0.024,32.271c0,0.52,0.181,0.66,0.67,0.64C39.994,38.621,40.958,38.646,41.995,38.646 M22.009,15.552
	c0-0.323,0-0.588,0-0.854c0-4.308,0.002-8.616,0-12.925c0-0.271,0.011-0.55-0.049-0.807c-0.14-0.6-0.531-0.925-1.158-0.934
	c-0.616-0.011-1.086,0.361-1.196,0.972c-0.047,0.266-0.041,0.54-0.041,0.811c-0.003,4.286,0,8.57-0.006,12.856
	c0,0.285-0.021,0.572-0.038,0.881h-1.872c0-0.279,0-0.52,0-0.761c0-1.984,0-3.972,0-5.956c0-2.458,0.008-4.916-0.005-7.376
	c-0.006-0.956-0.496-1.456-1.325-1.429c-0.777,0.024-1.133,0.468-1.133,1.426c-0.003,6.452-0.006,12.903,0,19.354
	c0.002,2.214,1.5,3.969,3.687,4.347c0.216,0.038,0.427,0.087,0.69,0.142c0,0.351,0,0.663,0,0.975c0,11.121,0,22.245,0.003,33.366
	c0.002,0.471,0.016,0.95,0.09,1.415c0.424,2.617,3.377,3.827,5.438,2.226c1.051-0.818,1.363-1.96,1.363-3.241
	c-0.005-11.302-0.003-22.604-0.003-33.905c0-0.285,0-0.572,0-0.849c0.197-0.041,0.304-0.068,0.416-0.087
	c2.466-0.455,3.925-2.214,3.925-4.732c0-6.249,0-12.498,0-18.747c0-0.224,0.071-0.5-0.033-0.665
	c-0.225-0.358-0.49-0.829-0.838-0.939c-0.348-0.106-0.925,0.049-1.204,0.307c-0.263,0.241-0.364,0.764-0.367,1.164
	c-0.025,4.398-0.017,8.797-0.017,13.196c0,0.26,0,0.517,0,0.764h-1.982c0-0.31,0-0.575,0-0.84c0-4.309,0-8.617-0.002-12.928
	c0-0.29,0.014-0.597-0.058-0.873c-0.137-0.525-0.474-0.857-1.057-0.876c-0.569-0.019-0.972,0.227-1.133,0.769
	c-0.088,0.293-0.107,0.619-0.107,0.931c-0.005,4.33-0.003,8.661-0.003,12.993v0.832H22.009z"/>
</svg>
