<?xml version="1.0" encoding="utf-8"?>
<!-- Generator: Adobe Illustrator 16.0.0, SVG Export Plug-In . SVG Version: 6.00 Build 0)  -->
<!DOCTYPE svg PUBLIC "-//W3C//DTD SVG 1.1//EN" "http://www.w3.org/Graphics/SVG/1.1/DTD/svg11.dtd">
<svg version="1.1" id="Layer_1" xmlns="http://www.w3.org/2000/svg" xmlns:xlink="http://www.w3.org/1999/xlink" x="0px" y="0px"
	 width="64px" height="64px" viewBox="0 0 64 64" enable-background="new 0 0 64 64" xml:space="preserve">
<g>
	<path fill="#5E8C7D" d="M61.507,0c0.648,0.295,0.918,0.873,1.11,1.503c0.596,1.967,0.611,3.99,0.486,6.007
		c-0.152,2.444-0.666,4.82-1.717,7.051c-1.886,4.004-4.988,6.687-9.058,8.325c-1.168,0.47-2.067,0.337-3-0.65
		c-2.489-2.635-5.091-5.164-7.647-7.735c-0.767-0.771-0.861-1.141-0.319-2.099c0.633-1.12,1.289-2.237,2.037-3.282
		c1.614-2.256,3.943-3.332,6.612-3.722c1.542-0.226,3.096-0.395,4.651-0.484c1.774-0.103,3.144-0.863,4.171-2.275
		c0.329-0.452,0.575-0.964,0.888-1.429C60.003,0.792,60.327,0.402,60.632,0H61.507L61.507,0z"/>
	<path fill="#5E8C7D" d="M27.379,27.412c-0.917,1.242-0.884,1.612,0.126,2.623c2.46,2.461,4.92,4.923,7.384,7.38
		c0.94,0.938,1.336,0.963,2.462,0.245c-0.235,0.273-0.466,0.55-0.704,0.821c-6.383,7.271-13.294,13.981-21.072,19.762
		c-2.676,1.989-5.427,3.885-8.57,5.07c-1.05,0.396-2.207,0.624-3.328,0.683c-1.609,0.086-2.759-1.156-2.836-2.777
		c-0.064-1.328,0.323-2.551,0.831-3.744c1.357-3.186,3.302-6.018,5.369-8.765c5.802-7.708,12.503-14.57,19.783-20.881
		C26.957,27.715,27.104,27.618,27.379,27.412"/>
	<path fill="#5E8C7D" d="M37.73,37.109c-0.317-0.499-0.541-1.032-0.917-1.416c-2.57-2.615-5.162-5.209-7.777-7.779
		c-0.339-0.333-0.852-0.489-1.316-0.745c0.008-0.009,0.114-0.148,0.236-0.271c3.637-3.641,7.276-7.28,10.916-10.918
		c0.843-0.843,1.495-0.843,2.357,0.018c2.568,2.559,5.132,5.122,7.692,7.689c0.762,0.764,0.79,1.451,0.075,2.167
		c-3.724,3.731-7.454,7.456-11.182,11.182C37.755,37.095,37.688,37.145,37.73,37.109"/>
</g>
</svg>
