<?xml version="1.0" encoding="utf-8"?>
<!-- Generator: Adobe Illustrator 16.0.0, SVG Export Plug-In . SVG Version: 6.00 Build 0)  -->
<!DOCTYPE svg PUBLIC "-//W3C//DTD SVG 1.1//EN" "http://www.w3.org/Graphics/SVG/1.1/DTD/svg11.dtd">
<svg version="1.1" id="Layer_1" xmlns="http://www.w3.org/2000/svg" xmlns:xlink="http://www.w3.org/1999/xlink" x="0px" y="0px"
	 width="64px" height="64px" viewBox="0 0 64 64" enable-background="new 0 0 64 64" xml:space="preserve">
<path fill="#5E8C7D" d="M16.865,64c-0.17-1.29-0.345-2.578-0.508-3.868c-0.633-4.982-1.263-9.964-1.894-14.947
	c-0.586-4.633-1.171-9.267-1.757-13.901c-0.673-5.321-1.348-10.642-2.022-15.962c-0.095-0.748-0.186-1.496-0.285-2.293h0.475
	c8.596,0,17.192-0.002,25.789,0.007c0.318,0,0.457-0.085,0.561-0.395c1.249-3.708,2.518-7.41,3.771-11.117
	c0.086-0.255,0.196-0.367,0.479-0.393c3.802-0.345,7.603-0.706,11.404-1.064c0.114-0.01,0.226-0.043,0.34-0.066h0.384
	c-0.116,0.963-0.236,1.926-0.344,2.89c-0.024,0.218-0.173,0.208-0.32,0.221c-1.274,0.116-2.549,0.23-3.824,0.348
	c-1.794,0.166-3.589,0.335-5.384,0.494c-0.195,0.017-0.3,0.077-0.368,0.272c-0.983,2.842-1.975,5.681-2.963,8.521
	c-0.024,0.068-0.036,0.141-0.069,0.271h4.846c-0.083,0.669-0.156,1.279-0.233,1.889c-0.634,4.994-1.27,9.987-1.904,14.98
	c-0.691,5.438-1.383,10.875-2.073,16.313c-0.676,5.321-1.351,10.643-2.027,15.964c-0.078,0.613-0.165,1.225-0.248,1.838H16.865z
	 M17.188,45.016c0.119-0.051,0.196-0.083,0.271-0.117c0.736-0.338,1.459-0.706,2.209-1.009c2.49-1.007,5.056-1.689,7.768-1.66
	c0.334,0.004,0.472-0.08,0.574-0.408c2.655-8.452,5.323-16.9,7.988-25.349c0.034-0.107,0.058-0.216,0.098-0.369H13.042
	C14.425,25.748,15.805,35.367,17.188,45.016 M31.09,42.779c1.072,0.434,3.173,0.825,4.241,0.79c0.875-0.029,1.659-0.273,2.246-0.973
	c0.528-0.629,0.958-1.304,1.083-2.139c0.054-0.358,0.162-0.708,0.218-1.065c0.507-3.255,1.051-6.506,1.5-9.77
	c0.604-4.395,1.133-8.799,1.693-13.2c0.012-0.09,0.002-0.183,0.002-0.311c-0.769,0-1.514,0.022-2.257-0.01
	c-0.364-0.016-0.507,0.1-0.615,0.449c-2.481,8.049-4.977,16.095-7.469,24.141C31.518,41.381,31.307,42.073,31.09,42.779"/>
</svg>
