<?xml version="1.0" encoding="utf-8"?>
<!-- Generator: Adobe Illustrator 16.0.0, SVG Export Plug-In . SVG Version: 6.00 Build 0)  -->
<!DOCTYPE svg PUBLIC "-//W3C//DTD SVG 1.1//EN" "http://www.w3.org/Graphics/SVG/1.1/DTD/svg11.dtd">
<svg version="1.1" id="Layer_1" xmlns="http://www.w3.org/2000/svg" xmlns:xlink="http://www.w3.org/1999/xlink" x="0px" y="0px"
	 width="64px" height="64px" viewBox="0 0 64 64" enable-background="new 0 0 64 64" xml:space="preserve">
<g>
	<path fill="#5E8C7D" d="M36.368,64c-0.008-0.783-0.023-1.566-0.024-2.35c-0.001-12.164,0.002-24.329-0.001-36.493
		c-0.001-3.711,1.566-6.58,4.607-8.668c0.07-0.048,0.143-0.101,0.223-0.123c0.843-0.235,1.063-0.777,1.021-1.635
		c-0.079-1.615-0.023-3.236-0.023-4.855c0-0.185,0-0.369,0-0.595h8.103c0.01,0.207,0.028,0.403,0.028,0.6
		c0.002,1.806,0.013,3.612-0.008,5.418c-0.005,0.401,0.14,0.613,0.485,0.792c2.976,1.544,4.656,4.043,5.274,7.288
		c0.117,0.613,0.105,1.256,0.105,1.885c0.006,12.607,0.005,25.215,0.007,37.822c0,0.306,0.023,0.61,0.036,0.916H36.368z
		 M54.384,54.024V34.677H38.227c0,0.22,0,0.403,0,0.587c0,6.029,0,12.058,0,18.087c0,0.671,0,0.673,0.657,0.673
		c4.956,0,9.912,0,14.868,0H54.384z"/>
	<path fill="#5E8C7D" d="M50.272,0c0.01,2.244,0.017,4.488,0.032,6.732c0.002,0.384-0.263,0.325-0.494,0.325
		c-2.143,0.001-4.286,0-6.429,0c-1.209,0-1.212,0-1.209-1.191C42.177,3.911,42.187,1.956,42.195,0H50.272z"/>
	<path fill="#5E8C7D" d="M17.638,45.646c-1.094-0.43-2.158-0.753-3.134-1.249c-2.309-1.172-3.941-3.036-5.109-5.318
		c-1.048-2.049-1.574-4.231-1.596-6.533c-0.026-2.761,0.583-5.362,1.943-7.779c0.154-0.274,0.342-0.36,0.651-0.36
		c5.895,0.009,11.789,0.01,17.683,0c0.336,0,0.5,0.112,0.667,0.401c1.551,2.703,2.119,5.633,1.88,8.698
		c-0.299,3.835-1.806,7.129-4.773,9.662c-1.274,1.087-2.748,1.824-4.384,2.196c-0.393,0.089-0.514,0.24-0.512,0.641
		c0.014,4.889,0.015,9.778-0.001,14.667c-0.001,0.455,0.146,0.545,0.576,0.587c1.318,0.127,2.631,0.321,3.944,0.502
		c0.181,0.025,0.373,0.088,0.522,0.19c0.195,0.133,0.353,0.322,0.526,0.488c-0.195,0.148-0.371,0.384-0.587,0.431
		c-1.078,0.229-2.159,0.498-3.253,0.59c-2.789,0.235-5.582,0.216-8.359-0.178c-0.586-0.083-1.165-0.246-1.731-0.424
		c-0.202-0.064-0.354-0.283-0.529-0.431c0.162-0.158,0.301-0.414,0.489-0.457c1.023-0.236,2.057-0.435,3.092-0.615
		c0.434-0.075,0.884-0.116,1.323-0.096c0.527,0.023,0.692-0.148,0.687-0.693c-0.029-2.862-0.014-5.724-0.014-8.586
		c0-1.959,0-3.918,0-5.877C17.638,45.917,17.638,45.731,17.638,45.646 M19.254,26.402c-2.521,0-5.042,0.004-7.562-0.005
		c-0.34-0.001-0.542,0.068-0.699,0.421c-0.905,2.03-1.29,4.143-1.13,6.357c0.226,3.14,1.368,5.85,3.651,8.075
		c2.69,2.622,6.911,3.083,10.065,1.042c2.555-1.654,4.041-4.051,4.708-6.958c0.658-2.862,0.442-5.669-0.759-8.388
		c-0.2-0.452-0.421-0.556-0.866-0.553C24.193,26.412,21.724,26.402,19.254,26.402"/>
	<path fill="#5E8C7D" d="M10.314,32.535h17.491c-0.114,0.737-0.196,1.455-0.339,2.161c-0.404,1.991-1.101,3.861-2.427,5.439
		c-1.607,1.914-3.697,2.712-6.16,2.567c-3.089-0.183-5.203-1.846-6.688-4.457C11.185,36.478,10.636,34.566,10.314,32.535"/>
</g>
</svg>
