<?xml version="1.0" encoding="utf-8"?>
<!-- Generator: Adobe Illustrator 16.0.0, SVG Export Plug-In . SVG Version: 6.00 Build 0)  -->
<!DOCTYPE svg PUBLIC "-//W3C//DTD SVG 1.1//EN" "http://www.w3.org/Graphics/SVG/1.1/DTD/svg11.dtd">
<svg version="1.1" id="Layer_1" xmlns="http://www.w3.org/2000/svg" xmlns:xlink="http://www.w3.org/1999/xlink" x="0px" y="0px"
	 width="64px" height="64px" viewBox="0 0 64 64" enable-background="new 0 0 64 64" xml:space="preserve">
<path fill="#5E8C7D" d="M41.615,0.396c0.098-0.107,0.197-0.215,0.296-0.322c1.349-0.245,2.587,0.165,3.803,0.663
	c3.883,1.595,7.402,3.824,10.804,6.248c1.493,1.064,2.621,2.373,2.82,4.304c0.124,1.203-0.248,2.286-0.7,3.359L14.219,63.001
	c-0.191,0.089-0.389,0.168-0.574,0.27c-1.762,0.97-3.549,0.981-5.274-0.02c-0.679-0.394-1.256-0.992-1.813-1.562
	c-2.245-2.296-2.549-5.383-0.763-8.06c2.102-3.15,5.098-5.128,8.597-6.428c0.793-0.294,1.598-0.59,2.337-0.996
	c3.563-1.95,6.843-4.324,10.041-6.814c0.755-0.588,1.452-1.25,2.183-1.884c-0.23-0.289-0.399-0.494-0.562-0.706
	c-1.935-2.518-3.937-4.987-5.771-7.576c-0.843-1.189-1.389-2.596-2-3.937c-0.161-0.351-0.064-0.818-0.085-1.231
	c0.087-0.016,0.174-0.031,0.261-0.048c3.578,3.661,7.155,7.321,10.758,11.007l1.366-1.487L21.671,23.197l0.86-0.936l11.248,10.332
	l0.719-0.782L23.251,21.48l0.865-0.941l11.249,10.334l0.719-0.783l-11.25-10.334l0.864-0.941L36.948,29.15l0.719-0.783
	L26.415,18.031l0.864-0.94l11.256,10.34l0.744-0.811L28.024,16.28l0.842-0.917L40.117,25.7l0.729-0.792L29.598,14.574l0.859-0.934
	L41.7,23.968l0.728-0.792L31.188,12.852l0.864-0.94l11.24,10.324l0.724-0.788L32.772,11.121l0.865-0.941l11.244,10.329l0.718-0.782
	L34.354,9.396l0.863-0.94l11.244,10.329l0.72-0.784L35.937,7.671l0.867-0.943l11.243,10.329l0.72-0.783L37.524,5.946l0.862-0.938
	l11.242,10.327l0.718-0.781L39.104,4.227l0.864-0.94l11.248,10.332l0.714-0.778L40.677,2.503l0.86-0.937l11.258,10.341l1.323-1.439
	C49.927,7.092,45.771,3.743,41.615,0.396 M14.061,54.507c-1.314-1.203-3.307-1.124-4.503,0.179c-1.192,1.297-1.11,3.304,0.185,4.513
	c1.305,1.22,3.386,1.136,4.576-0.184C15.497,57.709,15.383,55.717,14.061,54.507"/>
</svg>
