<?xml version="1.0" encoding="utf-8"?>
<!-- Generator: Adobe Illustrator 16.0.0, SVG Export Plug-In . SVG Version: 6.00 Build 0)  -->
<!DOCTYPE svg PUBLIC "-//W3C//DTD SVG 1.1//EN" "http://www.w3.org/Graphics/SVG/1.1/DTD/svg11.dtd">
<svg version="1.1" id="Layer_1" xmlns="http://www.w3.org/2000/svg" xmlns:xlink="http://www.w3.org/1999/xlink" x="0px" y="0px"
	 width="64px" height="64px" viewBox="0 0 64 64" enable-background="new 0 0 64 64" xml:space="preserve">
<g>
	<path fill="#5E8C7D" d="M16.162,56.336c9.207-0.119,16.063-4.674,22.028-10.953c3.619-3.809,6.434-8.188,8.746-12.893
		c0.222-0.45,0.472-0.716,0.983-0.862c2.321-0.661,3.498-3.056,2.636-5.26c-0.845-2.158-3.367-3.138-5.451-2.119
		c-2.077,1.016-2.815,3.551-1.669,5.619c0.146,0.262,0.235,0.703,0.116,0.944c-3.327,6.729-7.672,12.652-13.844,17.072
		c-3.194,2.289-6.663,3.953-10.608,4.49c-5.887,0.799-10.242-1.529-13.323-6.486c-2.867-4.615-2.874-9.363-0.651-14.204
		c0.425-0.925,0.943-1.806,1.61-2.68c0.304,1.335,0.617,2.668,0.911,4.005c0.523,2.379,0.995,4.771,1.566,7.141
		c0.558,2.314,1.895,4.164,3.696,5.688c0.202,0.17,0.453,0.283,0.863,0.535c-0.089-0.457-0.134-0.715-0.191-0.969
		c-1.844-8.156-3.693-16.313-5.533-24.469c-0.364-1.604,0.37-2.514,2.027-2.514c16.119-0.003,32.238-0.002,48.357,0.003
		c1.521,0,2.296,0.966,1.955,2.462c-2.805,12.311-5.59,24.627-8.464,36.92c-0.338,1.449-1.038,2.863-1.816,4.145
		c-0.873,1.436-2.346,2.053-4.048,2.049c-7.796-0.021-15.592-0.045-23.388-0.057c-2.025-0.002-3.569-0.855-4.689-2.523
		C16.955,59.891,16.569,58.145,16.162,56.336"/>
	<path fill="#5E8C7D" d="M9.157,14.755c0.365-1.961,1.148-3.661,2.339-5.14c3.252-4.042,7.476-5.642,12.602-4.826
		c0.484,0.078,0.833,0.075,1.231-0.353C31.657-2.339,42.39-1.19,47.147,6.77c0.319,0.535,0.646,0.675,1.24,0.67
		c4.603-0.04,8.236,2.501,9.596,6.661c0.06,0.178,0.091,0.366,0.16,0.65c-1.439,0-2.815,0.012-4.189-0.017
		c-0.17-0.003-0.399-0.175-0.497-0.333c-1.546-2.472-3.858-2.955-6.519-2.521c-0.679,0.111-1.343,0.311-2.122,0.496
		C43.643,8.062,41.171,5,36.508,4.431c-4.634-0.566-7.776,1.734-9.944,5.693c-0.562-0.215-1.072-0.412-1.583-0.607
		c-4.558-1.75-9.244,0.197-11.17,4.668c-0.178,0.413-0.364,0.597-0.837,0.583C11.729,14.731,10.482,14.755,9.157,14.755"/>
</g>
</svg>
