<?xml version="1.0" encoding="utf-8"?>
<!-- Generator: Adobe Illustrator 16.0.0, SVG Export Plug-In . SVG Version: 6.00 Build 0)  -->
<!DOCTYPE svg PUBLIC "-//W3C//DTD SVG 1.1//EN" "http://www.w3.org/Graphics/SVG/1.1/DTD/svg11.dtd">
<svg version="1.1" id="Layer_1" xmlns="http://www.w3.org/2000/svg" xmlns:xlink="http://www.w3.org/1999/xlink" x="0px" y="0px"
	 width="64px" height="64px" viewBox="0 0 64 64" enable-background="new 0 0 64 64" xml:space="preserve">
<path fill="#5E8C7D" d="M55.356,9.49c0.162-0.104,0.319-0.214,0.485-0.308c0.462-0.262,0.958-0.423,1.493-0.425
	c1.182-0.006,2.365-0.023,3.546,0.006c0.774,0.02,1.435,0.328,2.016,0.87c0.775,0.722,1.093,1.594,1.072,2.625
	c-0.009,0.454,0,0.909,0.001,1.34c-3.254-0.001-6.486-0.001-9.752-0.001c0.022,0.027,0.002,0.015,0.002,0.002
	c0-0.641-0.024-1.283,0.01-1.923c0.032-0.602,0.265-1.145,0.635-1.625c0.029-0.038,0.042-0.088,0.063-0.132
	C55.069,9.776,55.213,9.632,55.356,9.49"/>
<path fill="#5E8C7D" d="M59.011,55.605c-0.298-0.515-0.589-1.033-0.894-1.543c-1.046-1.748-2.097-3.493-3.146-5.239
	c-0.029-0.05-0.052-0.104-0.087-0.176c0.6,0.044,1.12-0.147,1.604-0.479c0.665,0.854,1.531,1.298,2.6,1.295
	c1.072-0.002,1.937-0.448,2.606-1.32c0.46,0.313,0.956,0.55,1.592,0.501c-0.232,0.395-0.44,0.751-0.653,1.105
	c-1.092,1.818-2.186,3.636-3.277,5.454c-0.041,0.068-0.063,0.148-0.094,0.224C59.178,55.485,59.095,55.545,59.011,55.605"/>
<path fill="#5E8C7D" d="M57.425,15.282c1.119,0,2.189-0.001,3.289-0.001c0.002,0.062,0.007,0.15,0.007,0.239
	c-0.002,5.852-0.004,24.85-0.008,30.7c0,0.909-0.704,1.635-1.599,1.654c-0.877,0.019-1.612-0.674-1.663-1.566
	c-0.004-0.067-0.005-0.135-0.005-0.202c0-5.817,0-24.782-0.001-30.6C57.444,15.431,57.431,15.355,57.425,15.282"/>
<path fill="#5E8C7D" d="M54.159,15.292c0.608,0.001,1.145,0.001,1.745,0.001c-0.012,0.066-0.043,0.158-0.043,0.25
	c-0.006,5.816-0.009,24.78-0.013,30.598c0,0.553-0.328,0.918-0.82,0.916c-0.489-0.001-0.827-0.37-0.827-0.919
	c-0.001-4.331-0.002-21.81,0-26.141c0-1.485,0.007-2.972,0.007-4.457C54.207,15.45,54.172,15.358,54.159,15.292"/>
<path fill="#5E8C7D" d="M62.328,15.283c0.552,0.001,1.089,0.001,1.673,0.002c-0.009,0.062-0.032,0.146-0.032,0.229
	c-0.002,5.53-0.001,24.208-0.002,29.738c0,0.33-0.004,0.659-0.011,0.988c-0.009,0.446-0.34,0.794-0.771,0.816
	c-0.451,0.022-0.813-0.288-0.866-0.744c-0.009-0.084-0.011-0.169-0.011-0.253c0.003-5.81,0.007-24.766,0.01-30.575
	C62.319,15.412,62.325,15.337,62.328,15.283"/>
<path fill="#5E8C7D" d="M4.439,46.796H1.479C0.662,46.796,0,46.135,0,45.317s0.662-1.479,1.479-1.479h2.959
	c0.818,0,1.479,0.661,1.479,1.479S5.257,46.796,4.439,46.796 M47.35,14.244v35.513c0,3.269-2.649,5.918-5.918,5.918H8.878
	c-3.269,0-5.919-2.649-5.919-5.918h1.479c2.448,0,4.439-1.991,4.439-4.439s-1.991-4.439-4.439-4.439H2.959V23.122h1.479
	c2.448,0,4.439-1.991,4.439-4.438c0-2.448-1.992-4.439-4.439-4.439H2.959c0-3.269,2.65-5.919,5.918-5.919h32.553
	C44.7,8.325,47.35,10.975,47.35,14.244 M44.391,14.244c0-1.633-1.327-2.959-2.959-2.959H14.797v41.431h26.634
	c1.633,0,2.959-1.329,2.959-2.959L44.391,14.244L44.391,14.244z M1.479,20.163h2.959c0.818,0,1.479-0.662,1.479-1.479
	c0-0.818-0.662-1.48-1.479-1.48H1.479C0.662,17.203,0,17.865,0,18.683C0,19.5,0.662,20.163,1.479,20.163 M39.952,14.244H19.236
	c-0.818,0-1.479,0.662-1.479,1.479c0,0.818,0.662,1.479,1.479,1.479h20.716c0.818,0,1.48-0.661,1.48-1.479
	C41.431,14.906,40.77,14.244,39.952,14.244 M39.952,20.163H19.236c-0.818,0-1.479,0.661-1.479,1.479
	c0,0.817,0.662,1.479,1.479,1.479h20.716c0.818,0,1.48-0.662,1.48-1.479C41.431,20.824,40.77,20.163,39.952,20.163 M39.952,26.081
	H19.236c-0.818,0-1.479,0.662-1.479,1.48c0,0.817,0.662,1.479,1.479,1.479h20.716c0.818,0,1.48-0.662,1.48-1.479
	C41.431,26.743,40.77,26.081,39.952,26.081 M39.952,32H19.236c-0.818,0-1.479,0.662-1.479,1.48c0,0.817,0.662,1.479,1.479,1.479
	h20.716c0.818,0,1.48-0.662,1.48-1.479C41.432,32.662,40.77,32,39.952,32 M39.952,37.918H19.236c-0.818,0-1.479,0.662-1.479,1.48
	c0,0.817,0.662,1.479,1.479,1.479h20.716c0.818,0,1.48-0.662,1.48-1.479C41.431,38.581,40.77,37.918,39.952,37.918 M31.073,43.837
	H19.236c-0.818,0-1.479,0.662-1.479,1.479c0,0.818,0.662,1.479,1.479,1.479h11.837c0.818,0,1.48-0.661,1.48-1.479
	C32.553,44.5,31.891,43.837,31.073,43.837"/>
</svg>
