<?xml version="1.0" encoding="utf-8"?>
<!-- Generator: Adobe Illustrator 16.0.0, SVG Export Plug-In . SVG Version: 6.00 Build 0)  -->
<!DOCTYPE svg PUBLIC "-//W3C//DTD SVG 1.1//EN" "http://www.w3.org/Graphics/SVG/1.1/DTD/svg11.dtd">
<svg version="1.1" id="Layer_1" xmlns="http://www.w3.org/2000/svg" xmlns:xlink="http://www.w3.org/1999/xlink" x="0px" y="0px"
	 width="64px" height="64px" viewBox="0 0 64 64" enable-background="new 0 0 64 64" xml:space="preserve">
<path fill="#5E8C7D" d="M52.773,24.482H39.519v-13.25c0-2.063-1.669-3.732-3.732-3.732h-7.573c-2.063,0-3.732,1.669-3.732,3.732
	v13.25H11.232c-2.063,0-3.732,1.668-3.732,3.732v7.572c0,2.063,1.669,3.732,3.732,3.732h13.25v13.256
	c0,2.059,1.668,3.727,3.732,3.727h7.572c2.063,0,3.732-1.67,3.732-3.727V39.519h13.256c2.059,0,3.727-1.669,3.727-3.732v-7.573
	C56.5,26.15,54.831,24.482,52.773,24.482"/>
</svg>
